<?xml version="1.0" encoding="UTF-8"?>
<svg width="409px" height="78px" viewBox="0 0 409 78" version="1.1" xmlns="http://www.w3.org/2000/svg" xmlns:xlink="http://www.w3.org/1999/xlink">
    <title>14AF5D14-D261-4DF8-A4E7-C448E4358D0B</title>
    <g id="⚠️KDL-SPRINT-1" stroke="none" stroke-width="1" fill="none" fill-rule="evenodd">
        <g id="Splash" transform="translate(-516.000000, -441.000000)">
            <g id="Atoms-/-Brand-/-Logo-/-logo-B-horizontal-dark-Copy" transform="translate(516.000000, 441.000000)">
                <g id="Combined-Shape" transform="translate(0.862069, 0.600000)" fill="#E3E3E3">
                    <path d="M388.182796,0.000878431372 L391.578548,3.22516078 L403.698801,14.7363451 L403.698801,0.623905882 L407.094553,0.623905882 L407.094553,22.3264314 L403.698801,19.1012706 L391.578548,7.58986667 L388.182796,4.36492549 L388.182796,0.000878431372 Z M72.3055326,0.000878431372 L75.7012844,3.22516078 L87.8215372,14.7363451 L87.8215372,0.623905882 L91.217289,0.623905882 L91.217289,22.3264314 L87.8215372,19.1012706 L75.7012844,7.59008627 L72.3055326,4.36492549 L72.3055326,0.000878431372 Z M357.029542,0.527937255 L357.029542,3.82381176 C356.301403,3.99071373 355.60497,4.25578039 354.954758,4.64272941 C353.814876,5.32065882 352.905874,6.25201569 352.252313,7.40956863 C351.598751,8.56909804 351.267393,9.84633725 351.267393,11.2054902 C351.267393,12.5453176 351.602993,13.8023529 352.265263,14.9412392 C352.927086,16.0814431 353.84569,16.9987451 354.995619,17.6678902 C356.142422,18.3361569 357.414043,18.6752314 358.775425,18.6752314 C360.136137,18.6752314 361.397933,18.3412078 362.526427,17.6823843 C363.65559,17.0235608 364.55968,16.106698 365.213018,14.958149 C365.866357,13.8076235 366.197715,12.5352157 366.197715,11.1773804 C366.197715,9.81822745 365.861444,8.54164706 365.198505,7.38277647 C364.536458,6.22522353 363.622544,5.29847843 362.482886,4.62911373 C361.840265,4.25248627 361.152987,3.99247059 360.435342,3.82710588 L360.435342,3.82710588 L360.435342,0.534964706 C361.749164,0.742054902 363.001805,1.18456471 364.173616,1.86908235 C365.841795,2.84370196 367.19045,4.17035294 368.182738,5.81170196 C369.17592,7.45722353 369.679656,9.26261961 369.679656,11.1773804 C369.679656,13.1119059 369.180832,14.9260863 368.197475,16.5696314 C367.214565,18.2129569 365.86457,19.5310431 364.184558,20.4874353 C362.503875,21.4447059 360.664435,21.9302588 358.717817,21.9302588 C356.75222,21.9302588 354.908537,21.4497569 353.237232,20.502149 C351.565928,19.5545412 350.225088,18.2456784 349.252449,16.6117961 C348.278693,14.9776941 347.784782,13.1490196 347.784782,11.1773804 C347.784782,9.26174118 348.283606,7.45678431 349.267409,5.8128 C350.24898,4.17123137 351.588033,2.84436078 353.247504,1.86930196 C354.424897,1.17753725 355.692275,0.731952941 357.029542,0.527937255 L357.029542,0.527937255 Z M116.991778,0.509709804 C119.290519,0.509709804 121.444571,1.07585882 123.40347,2.19278431 L123.40347,2.19278431 L123.646853,2.33135686 L122.319187,4.97916863 L122.045214,4.83422745 C121.315958,4.44859608 120.530657,4.13214118 119.710523,3.89408627 C118.894631,3.65756863 118.118708,3.53744314 117.403966,3.53744314 C116.344245,3.53744314 115.499326,3.76978824 114.892878,4.22767059 C114.30273,4.6732549 114.015806,5.26861176 114.015806,6.048 C114.015806,6.80279216 114.355872,7.40517647 115.055431,7.88919216 C115.809025,8.41076078 116.906035,8.9376 118.315871,9.45499608 C119.402833,9.83755294 120.337513,10.2611765 121.089768,10.7126902 C121.866807,11.1791373 122.520592,11.8313725 123.033483,12.6518275 C123.550616,13.4795294 123.812755,14.5373804 123.812755,15.7966118 C123.812755,16.9429647 123.516453,17.9962039 122.932334,18.9273412 C122.348214,19.8582588 121.507985,20.6005333 120.43509,21.1330824 C119.36934,21.6621176 118.107097,21.9302588 116.683418,21.9302588 C115.36848,21.9302588 114.084802,21.7194353 112.86811,21.3041569 C111.657223,20.8917333 110.575397,20.3596235 109.652997,19.7227608 L109.652997,19.7227608 L109.43105,19.5694745 L110.971061,16.8581961 L111.246151,17.0633098 C111.92874,17.571702 112.765621,18.010698 113.734464,18.368 C115.912854,19.1722039 117.783108,19.0503216 119.178429,18.104251 C119.93448,17.5908078 120.30201,16.8452392 120.30201,15.8249412 C120.30201,14.9667137 119.994321,14.3048157 119.361525,13.8014745 C118.687421,13.2662902 117.720141,12.7521882 116.486702,12.274102 C115.310202,11.8375216 114.313671,11.4029176 113.52904,10.9834667 C112.716051,10.549302 112.00957,9.94472157 111.429917,9.1868549 C110.83508,8.4112 110.533865,7.43152941 110.533865,6.2748549 C110.533865,4.58760784 111.145002,3.20188235 112.350083,2.15654902 C113.541097,1.12219608 115.102545,0.567905882 116.990438,0.509709804 L116.990438,0.509709804 Z M41.0589444,0.527937255 L41.0589444,3.82381176 C40.3310281,3.99071373 39.6343721,4.25578039 38.984383,4.64272941 C37.8445018,5.32065882 36.9352763,6.25201569 36.281938,7.40956863 C35.628153,8.56909804 35.2970181,9.84633725 35.2970181,11.2054902 C35.2970181,12.5453176 35.6326188,13.8023529 36.2948886,14.9412392 C36.9567119,16.0814431 37.8753154,16.9987451 39.0250213,17.6678902 C40.1720476,18.3361569 41.443445,18.6752314 42.8048271,18.6752314 C44.1655393,18.6752314 45.4275586,18.3412078 46.5558288,17.6823843 C47.6852155,17.0235608 48.5890821,16.106698 49.2424205,14.958149 C49.8957588,13.8076235 50.2271171,12.5352157 50.2271171,11.1773804 C50.2271171,9.81822745 49.8908465,8.54164706 49.2281301,7.38277647 C48.5658603,6.22522353 47.6519457,5.29847843 46.5125111,4.62911373 C45.8696673,4.25248627 45.1823892,3.99247059 44.4649674,3.82710588 L44.4649674,3.82710588 L44.4649674,0.534964706 C45.7785661,0.742054902 47.0314306,1.18456471 48.2030185,1.86908235 C49.8711973,2.84370196 51.219852,4.17035294 52.2121403,5.81170196 C53.2053218,7.45722353 53.7090577,9.26261961 53.7090577,11.1773804 C53.7090577,13.1119059 53.2102341,14.9260863 52.2268773,16.5696314 C51.243967,18.2129569 49.8941958,19.5310431 48.2141829,20.4874353 C46.5332768,21.4447059 44.6940601,21.9302588 42.7474423,21.9302588 C40.7816217,21.9302588 38.9379393,21.4497569 37.2668578,20.502149 C35.5953298,19.5545412 34.2544901,18.2456784 33.2818511,16.6117961 C32.3080956,14.9776941 31.8144076,13.1490196 31.8144076,11.1773804 C31.8144076,9.26174118 32.3132312,7.45678431 33.2968113,5.8128 C34.2786051,4.17123137 35.6176585,2.84436078 37.277129,1.86930196 C38.4542992,1.17753725 39.7219006,0.731952941 41.0589444,0.527937255 L41.0589444,0.527937255 Z M276.59055,7.95419608 L282.524631,21.7040627 L279.09293,21.7040627 L274.874811,11.9297569 L276.59055,7.95419608 Z M273.157732,-9.36244546e-14 L274.873471,3.97556078 L274.874811,3.97863529 L273.159072,7.95419608 L273.157732,7.95112157 L267.222312,21.7040627 L263.790834,21.7040627 L271.441994,3.97556078 L273.157732,-9.36244546e-14 Z M329.281641,0.623027451 L329.281641,21.7034039 L325.88589,21.7034039 L325.88589,0.623027451 L329.281641,0.623027451 Z M307.614074,0.623027451 L307.614074,3.84906667 L302.024302,3.84906667 L302.024302,21.7034039 L298.628104,21.7034039 L298.628104,0.623027451 L307.614074,0.623027451 Z M237.083675,0.623027451 L237.083675,18.4483765 L247.687584,18.4483765 L247.687584,21.7034039 L233.687923,21.7034039 L233.687923,0.623027451 L237.083675,0.623027451 Z M204.753474,0.623027451 L204.753474,18.4483765 L215.357383,18.4483765 L215.357383,21.7034039 L201.357722,21.7034039 L201.357722,0.623027451 L204.753474,0.623027451 Z M171.530347,7.06610196 L171.530347,9.49320784 L182.291898,9.49320784 L182.291898,12.7194667 L171.530347,12.7194667 L171.530347,18.4483765 L182.291898,18.4483765 L182.291898,21.7034039 L168.134596,21.7034039 L168.134596,7.06610196 L171.530347,7.06610196 Z M149.458407,0.623027451 L149.458407,21.7034039 L146.061985,21.7034039 L146.061985,3.84906667 L140.616011,3.84906667 L140.616011,0.623027451 L149.458407,0.623027451 Z M9.41088583,12.4794353 L16.5871133,21.7034039 L12.2845922,21.7034039 L7.06101129,14.8727216 L9.41088583,12.4794353 Z M3.39575181,0.623027451 L3.39686825,9.2764549 L11.893393,0.623027451 L16.4857409,0.623027451 L3.39575181,13.9547608 L3.39575181,21.7034039 L4.79841696e-12,21.7034039 L4.79841696e-12,0.623027451 L3.39575181,0.623027451 Z M388.182774,8.74017255 L391.578526,11.9653333 L391.578526,21.7025255 L388.182774,21.7025255 L388.182774,8.74017255 Z M72.3055326,8.74017255 L75.7012844,11.9653333 L75.7012844,21.7025255 L72.3055326,21.7025255 L72.3055326,8.74017255 Z M182.2785,0.623027451 L182.2785,3.84906667 L168.134596,3.84906667 L168.134596,0.623027451 L182.2785,0.623027451 Z"></path>
                </g>
                <g id="Group" transform="translate(0.862069, 40.600000)">
                    <polygon id="Fill-1" fill="#1F82B5" points="-7.26110482e-12 0.00112 -7.26110482e-12 36.80112 79.826673 36.80112 94.8359483 0.00112"></polygon>
                    <polygon id="Fill-2" fill="#1F82B5" points="98.3644516 0.00112 83.3793103 36.80112 177.982759 36.80112 177.982759 0.00112"></polygon>
                    <path d="M29.094569,27.2 C30.4575,27.2 31.6981681,26.982 32.8165733,26.546 C33.9349784,26.11 34.8910345,25.502 35.6847414,24.722 C36.4784483,23.942 37.0937716,23.018 37.5307112,21.95 C37.9676509,20.882 38.1861207,19.716 38.1861207,18.452 C38.1861207,17.196 37.9676509,16.034 37.5307112,14.966 C37.0937716,13.898 36.4784483,12.976 35.6847414,12.2 C34.8910345,11.424 33.9349784,10.816 32.8165733,10.376 C31.6981681,9.936 30.4575,9.716 29.094569,9.716 L29.094569,9.716 L22.287931,9.716 L22.287931,27.2 L29.094569,27.2 Z M29.094569,24.08 L26.3767241,24.08 L26.3767241,12.836 L29.094569,12.836 C29.8722414,12.836 30.5657328,12.966 31.1750431,13.226 C31.7843534,13.486 32.2994612,13.858 32.7203664,14.342 C33.1412716,14.826 33.4639655,15.416 33.6884483,16.112 C33.912931,16.808 34.0251724,17.588 34.0251724,18.452 C34.0251724,19.324 33.912931,20.108 33.6884483,20.804 C33.4639655,21.5 33.1412716,22.09 32.7203664,22.574 C32.2994612,23.058 31.7843534,23.43 31.1750431,23.69 C30.5657328,23.95 29.8722414,24.08 29.094569,24.08 L29.094569,24.08 Z M53.0180172,27.2 L53.0180172,24.08 L45.8265517,24.08 L45.8265517,19.916 L51.3343966,19.916 L51.3343966,16.916 L45.8265517,16.916 L45.8265517,12.836 L53.0180172,12.836 L53.0180172,9.716 L41.7377586,9.716 L41.7377586,27.2 L53.0180172,27.2 Z M66.1903448,27.2 L73.2134483,9.716 L69.9183621,9.716 C69.5816379,9.716 69.2970259,9.806 69.0645259,9.986 C68.8320259,10.166 68.6756897,10.368 68.5955172,10.592 L68.5955172,10.592 L65.2282759,19.952 C65.0839655,20.36 64.9376509,20.804 64.7893319,21.284 C64.6410129,21.764 64.5107328,22.268 64.3984914,22.796 C64.2621983,22.268 64.1158836,21.764 63.9595474,21.284 C63.8032112,20.804 63.6488793,20.36 63.4965517,19.952 L63.4965517,19.952 L60.1052586,10.592 C60.0090517,10.328 59.8487069,10.116 59.6242241,9.956 C59.3997414,9.796 59.1111207,9.716 58.7583621,9.716 L58.7583621,9.716 L55.4873276,9.716 L62.510431,27.2 L66.1903448,27.2 Z" id="DEV" fill="#000000" fill-rule="nonzero"></path>
                    <path d="M119.432845,27.2 L119.432845,23.96 L112.938879,23.96 L112.938879,9.716 L108.874138,9.716 L108.874138,27.2 L119.432845,27.2 Z M124.716207,27.2 C125.052931,27.2 125.337543,27.11 125.570043,26.93 C125.802543,26.75 125.958879,26.548 126.039052,26.324 L126.039052,26.324 L127.073276,23.276 L133.735603,23.276 L134.769828,26.324 C134.858017,26.58 135.016358,26.79 135.244849,26.954 C135.473341,27.118 135.763966,27.2 136.116724,27.2 L136.116724,27.2 L139.2675,27.2 L132.484914,9.716 L128.323966,9.716 L121.541379,27.2 L124.716207,27.2 Z M132.797586,20.516 L128.011293,20.516 L129.622759,15.752 C129.743017,15.448 129.871293,15.088 130.007586,14.672 C130.143879,14.256 130.276164,13.804 130.40444,13.316 C130.540733,13.796 130.67903,14.242 130.819332,14.654 C130.959634,15.066 131.081897,15.424 131.186121,15.728 L131.186121,15.728 L132.797586,20.516 Z M149.289052,27.2 C150.33931,27.2 151.273319,27.066 152.091078,26.798 C152.908836,26.53 153.596315,26.158 154.153513,25.682 C154.710711,25.206 155.133621,24.648 155.422241,24.008 C155.710862,23.368 155.855172,22.676 155.855172,21.932 C155.855172,20.948 155.578578,20.142 155.025388,19.514 C154.472198,18.886 153.618362,18.432 152.463879,18.152 C152.993017,17.96 153.445991,17.734 153.822802,17.474 C154.199612,17.214 154.508276,16.924 154.748793,16.604 C154.98931,16.284 155.16569,15.942 155.277931,15.578 C155.390172,15.214 155.446293,14.836 155.446293,14.444 C155.446293,13.724 155.32403,13.072 155.079504,12.488 C154.834978,11.904 154.444138,11.408 153.906983,11 C153.369828,10.592 152.676336,10.276 151.826509,10.052 C150.976681,9.828 149.946466,9.716 148.735862,9.716 L148.735862,9.716 L142.29,9.716 L142.29,27.2 L149.289052,27.2 Z M148.471293,17.072 L146.354741,17.072 L146.354741,12.752 L148.735862,12.752 C149.192845,12.752 149.587694,12.788 149.920409,12.86 C150.253125,12.932 150.527716,13.052 150.744181,13.22 C150.960647,13.388 151.120991,13.61 151.225216,13.886 C151.32944,14.162 151.381552,14.508 151.381552,14.924 C151.381552,15.348 151.315409,15.7 151.183125,15.98 C151.050841,16.26 150.858427,16.48 150.605884,16.64 C150.353341,16.8 150.046681,16.912 149.685905,16.976 C149.325129,17.04 148.920259,17.072 148.471293,17.072 L148.471293,17.072 Z M149.216897,24.14 L146.354741,24.14 L146.354741,19.784 L149.192845,19.784 C149.705948,19.784 150.130862,19.832 150.467586,19.928 C150.80431,20.024 151.074892,20.16 151.279332,20.336 C151.483772,20.512 151.628082,20.728 151.712263,20.984 C151.796444,21.24 151.838534,21.528 151.838534,21.848 C151.838534,22.128 151.802457,22.404 151.730302,22.676 C151.658147,22.948 151.525862,23.192 151.333448,23.408 C151.141034,23.624 150.874461,23.8 150.533728,23.936 C150.192996,24.072 149.754052,24.14 149.216897,24.14 L149.216897,24.14 Z" id="LAB" fill="#000000" fill-rule="nonzero"></path>
                    <rect id="Rectangle-Copy" fill="#15161A" opacity="0" x="155.534483" y="0" width="22.4482759" height="36.8"></rect>
                    <rect id="Rectangle-Copy-2" fill="#15161A" opacity="0" x="0" y="0" width="22.4482759" height="36.8"></rect>
                </g>
            </g>
        </g>
    </g>
</svg>